<mxfile host="Electron" modified="2023-06-24T10:16:26.328Z" agent="Mozilla/5.0 (Windows NT 10.0; Win64; x64) AppleWebKit/537.36 (KHTML, like Gecko) draw.io/21.5.0 Chrome/112.0.5615.204 Electron/24.5.1 Safari/537.36" etag="9OjLK02gHzftb1syqh5R" version="21.5.0" type="device">
  <diagram name="第 1 页" id="-qdN-i2x8bfcG3Ot1frl">
    <mxGraphModel dx="1182" dy="683" grid="1" gridSize="10" guides="1" tooltips="1" connect="1" arrows="1" fold="1" page="1" pageScale="1" pageWidth="827" pageHeight="1169" math="0" shadow="0">
      <root>
        <mxCell id="0" />
        <mxCell id="1" parent="0" />
        <mxCell id="JQbiiND-s6k2h6yb_F9b-8" style="edgeStyle=orthogonalEdgeStyle;rounded=1;orthogonalLoop=1;jettySize=auto;html=1;entryX=0;entryY=0.5;entryDx=0;entryDy=0;strokeColor=#FF6392;fontColor=default;labelBackgroundColor=none;" parent="1" edge="1">
          <mxGeometry relative="1" as="geometry">
            <mxPoint x="370" y="176" as="sourcePoint" />
            <mxPoint x="430" y="176" as="targetPoint" />
          </mxGeometry>
        </mxCell>
        <mxCell id="JQbiiND-s6k2h6yb_F9b-15" style="edgeStyle=orthogonalEdgeStyle;rounded=1;orthogonalLoop=1;jettySize=auto;html=1;entryX=1;entryY=0.5;entryDx=0;entryDy=0;strokeColor=#FF6392;fontColor=default;labelBackgroundColor=none;" parent="1" target="JQbiiND-s6k2h6yb_F9b-12" edge="1">
          <mxGeometry relative="1" as="geometry">
            <Array as="points">
              <mxPoint x="310" y="306" />
            </Array>
            <mxPoint x="310" y="206" as="sourcePoint" />
          </mxGeometry>
        </mxCell>
        <mxCell id="JQbiiND-s6k2h6yb_F9b-17" value="have done" style="edgeLabel;html=1;align=center;verticalAlign=middle;resizable=0;points=[];fontColor=#5AA9E6;labelBackgroundColor=none;rounded=1;" parent="JQbiiND-s6k2h6yb_F9b-15" vertex="1" connectable="0">
          <mxGeometry x="-0.4199" relative="1" as="geometry">
            <mxPoint as="offset" />
          </mxGeometry>
        </mxCell>
        <mxCell id="JQbiiND-s6k2h6yb_F9b-1" value="过去完成时" style="rounded=1;whiteSpace=wrap;html=1;strokeColor=#FF6392;fontColor=#5AA9E6;fillColor=#FFE45E;labelBackgroundColor=none;" parent="1" vertex="1">
          <mxGeometry x="250" y="145" width="120" height="60" as="geometry" />
        </mxCell>
        <mxCell id="JQbiiND-s6k2h6yb_F9b-7" style="edgeStyle=orthogonalEdgeStyle;rounded=1;orthogonalLoop=1;jettySize=auto;html=1;entryX=0;entryY=0.5;entryDx=0;entryDy=0;strokeColor=#FF6392;fontColor=default;labelBackgroundColor=none;" parent="1" edge="1">
          <mxGeometry relative="1" as="geometry">
            <mxPoint x="180" y="176" as="sourcePoint" />
            <mxPoint x="250" y="176" as="targetPoint" />
          </mxGeometry>
        </mxCell>
        <mxCell id="JQbiiND-s6k2h6yb_F9b-13" style="edgeStyle=orthogonalEdgeStyle;rounded=1;orthogonalLoop=1;jettySize=auto;html=1;entryX=0;entryY=0.5;entryDx=0;entryDy=0;strokeColor=#FF6392;fontColor=default;labelBackgroundColor=none;" parent="1" target="JQbiiND-s6k2h6yb_F9b-12" edge="1">
          <mxGeometry relative="1" as="geometry">
            <Array as="points">
              <mxPoint x="120" y="306" />
            </Array>
            <mxPoint x="120" y="206" as="sourcePoint" />
          </mxGeometry>
        </mxCell>
        <mxCell id="JQbiiND-s6k2h6yb_F9b-16" value="would have done" style="edgeLabel;html=1;align=center;verticalAlign=middle;resizable=0;points=[];fontColor=#5AA9E6;labelBackgroundColor=none;rounded=1;" parent="JQbiiND-s6k2h6yb_F9b-13" vertex="1" connectable="0">
          <mxGeometry x="-0.4182" y="3" relative="1" as="geometry">
            <mxPoint as="offset" />
          </mxGeometry>
        </mxCell>
        <mxCell id="JQbiiND-s6k2h6yb_F9b-2" value="过去将来完成时" style="rounded=1;whiteSpace=wrap;html=1;strokeColor=#FF6392;fontColor=#5AA9E6;fillColor=#FFE45E;labelBackgroundColor=none;" parent="1" vertex="1">
          <mxGeometry x="60" y="145" width="120" height="60" as="geometry" />
        </mxCell>
        <mxCell id="JQbiiND-s6k2h6yb_F9b-11" value="" style="edgeStyle=orthogonalEdgeStyle;rounded=1;orthogonalLoop=1;jettySize=auto;html=1;strokeColor=#FF6392;fontColor=default;labelBackgroundColor=none;" parent="1" edge="1">
          <mxGeometry relative="1" as="geometry">
            <mxPoint x="550" y="176" as="sourcePoint" />
            <mxPoint x="630" y="176" as="targetPoint" />
          </mxGeometry>
        </mxCell>
        <mxCell id="JQbiiND-s6k2h6yb_F9b-19" style="edgeStyle=orthogonalEdgeStyle;rounded=1;orthogonalLoop=1;jettySize=auto;html=1;entryX=0;entryY=0.5;entryDx=0;entryDy=0;strokeColor=#FF6392;fontColor=default;fillColor=#FFE45E;labelBackgroundColor=none;" parent="1" target="JQbiiND-s6k2h6yb_F9b-18" edge="1">
          <mxGeometry relative="1" as="geometry">
            <Array as="points">
              <mxPoint x="490" y="306" />
            </Array>
            <mxPoint x="490" y="206" as="sourcePoint" />
          </mxGeometry>
        </mxCell>
        <mxCell id="JQbiiND-s6k2h6yb_F9b-21" value="should do/were to(将来)&lt;br&gt;were to do/过去分词（现在）" style="edgeLabel;html=1;align=center;verticalAlign=middle;resizable=0;points=[];fontColor=#5AA9E6;rounded=1;labelBackgroundColor=none;" parent="JQbiiND-s6k2h6yb_F9b-19" vertex="1" connectable="0">
          <mxGeometry x="-0.5262" y="-2" relative="1" as="geometry">
            <mxPoint as="offset" />
          </mxGeometry>
        </mxCell>
        <mxCell id="JQbiiND-s6k2h6yb_F9b-4" value="过去时" style="whiteSpace=wrap;html=1;fillColor=#FFE45E;strokeColor=#FF6392;fontColor=#5AA9E6;rounded=1;labelBackgroundColor=none;" parent="1" vertex="1">
          <mxGeometry x="430" y="145" width="120" height="60" as="geometry" />
        </mxCell>
        <mxCell id="JQbiiND-s6k2h6yb_F9b-20" style="edgeStyle=orthogonalEdgeStyle;rounded=1;orthogonalLoop=1;jettySize=auto;html=1;entryX=1;entryY=0.5;entryDx=0;entryDy=0;strokeColor=#FF6392;fontColor=default;fillColor=#FFE45E;labelBackgroundColor=none;" parent="1" target="JQbiiND-s6k2h6yb_F9b-18" edge="1">
          <mxGeometry relative="1" as="geometry">
            <Array as="points">
              <mxPoint x="690" y="306" />
            </Array>
            <mxPoint x="690" y="206" as="sourcePoint" />
          </mxGeometry>
        </mxCell>
        <mxCell id="JQbiiND-s6k2h6yb_F9b-22" value="would（could/might...） do" style="edgeLabel;html=1;align=center;verticalAlign=middle;resizable=0;points=[];fontColor=#5AA9E6;rounded=1;labelBackgroundColor=none;" parent="JQbiiND-s6k2h6yb_F9b-20" vertex="1" connectable="0">
          <mxGeometry x="-0.4933" y="-1" relative="1" as="geometry">
            <mxPoint as="offset" />
          </mxGeometry>
        </mxCell>
        <mxCell id="JQbiiND-s6k2h6yb_F9b-10" value="过去将来时" style="whiteSpace=wrap;html=1;fillColor=#FFE45E;strokeColor=#FF6392;fontColor=#5AA9E6;rounded=1;labelBackgroundColor=none;" parent="1" vertex="1">
          <mxGeometry x="630" y="145" width="120" height="60" as="geometry" />
        </mxCell>
        <mxCell id="JQbiiND-s6k2h6yb_F9b-12" value="（主句）过去的虚拟（从句）" style="shape=hexagon;perimeter=hexagonPerimeter2;whiteSpace=wrap;html=1;fixedSize=1;strokeColor=#FF6392;fontColor=#5AA9E6;fillColor=#FFE45E;labelBackgroundColor=none;rounded=1;" parent="1" vertex="1">
          <mxGeometry x="130" y="266" width="170" height="80" as="geometry" />
        </mxCell>
        <mxCell id="JQbiiND-s6k2h6yb_F9b-18" value="(从句)现在/将来的虚拟(主句)" style="shape=hexagon;perimeter=hexagonPerimeter2;whiteSpace=wrap;html=1;fixedSize=1;strokeColor=#FF6392;fontColor=#5AA9E6;fillColor=#FFE45E;rounded=1;labelBackgroundColor=none;" parent="1" vertex="1">
          <mxGeometry x="498" y="266" width="186" height="80" as="geometry" />
        </mxCell>
        <mxCell id="Z0YgLYN44HVVr9o0JJ_9-1" style="edgeStyle=orthogonalEdgeStyle;rounded=0;orthogonalLoop=1;jettySize=auto;html=1;labelBackgroundColor=none;strokeColor=#FF6392;fontColor=default;" edge="1" parent="1">
          <mxGeometry relative="1" as="geometry">
            <mxPoint x="180" y="166" as="sourcePoint" />
            <mxPoint x="180" y="186" as="targetPoint" />
          </mxGeometry>
        </mxCell>
        <mxCell id="Z0YgLYN44HVVr9o0JJ_9-6" style="edgeStyle=orthogonalEdgeStyle;rounded=0;orthogonalLoop=1;jettySize=auto;html=1;strokeColor=#FF6392;fontColor=#5AA9E6;fillColor=#FFE45E;" edge="1" parent="1" source="Z0YgLYN44HVVr9o0JJ_9-3" target="JQbiiND-s6k2h6yb_F9b-1">
          <mxGeometry relative="1" as="geometry" />
        </mxCell>
        <mxCell id="Z0YgLYN44HVVr9o0JJ_9-7" style="edgeStyle=orthogonalEdgeStyle;rounded=0;orthogonalLoop=1;jettySize=auto;html=1;strokeColor=#FF6392;fontColor=#5AA9E6;fillColor=#FFE45E;" edge="1" parent="1" source="Z0YgLYN44HVVr9o0JJ_9-3" target="JQbiiND-s6k2h6yb_F9b-4">
          <mxGeometry relative="1" as="geometry" />
        </mxCell>
        <mxCell id="Z0YgLYN44HVVr9o0JJ_9-8" style="edgeStyle=orthogonalEdgeStyle;rounded=0;orthogonalLoop=1;jettySize=auto;html=1;strokeColor=#FF6392;fontColor=#5AA9E6;fillColor=#FFE45E;" edge="1" parent="1">
          <mxGeometry relative="1" as="geometry">
            <mxPoint x="414" y="97" as="sourcePoint" />
            <mxPoint x="690" y="152" as="targetPoint" />
            <Array as="points">
              <mxPoint x="414" y="117" />
              <mxPoint x="690" y="117" />
            </Array>
          </mxGeometry>
        </mxCell>
        <mxCell id="Z0YgLYN44HVVr9o0JJ_9-11" style="edgeStyle=orthogonalEdgeStyle;rounded=0;orthogonalLoop=1;jettySize=auto;html=1;strokeColor=#FF6392;fontColor=#5AA9E6;fillColor=#FFE45E;" edge="1" parent="1">
          <mxGeometry relative="1" as="geometry">
            <mxPoint x="414" y="87.00000000000006" as="sourcePoint" />
            <mxPoint x="120" y="142" as="targetPoint" />
            <Array as="points">
              <mxPoint x="414" y="117" />
              <mxPoint x="120" y="117" />
            </Array>
          </mxGeometry>
        </mxCell>
        <mxCell id="Z0YgLYN44HVVr9o0JJ_9-3" value="&lt;b&gt;状语从句&lt;/b&gt;的虚拟" style="ellipse;whiteSpace=wrap;html=1;strokeColor=#FF6392;fontColor=#5AA9E6;fillColor=#FFE45E;labelBackgroundColor=none;" vertex="1" parent="1">
          <mxGeometry x="354" y="10" width="120" height="80" as="geometry" />
        </mxCell>
      </root>
    </mxGraphModel>
  </diagram>
</mxfile>
